<svg xmlns="http://www.w3.org/2000/svg" viewBox="0 0 249.01 240.26"><defs><style>.cls-1{fill:#fff;}</style></defs><g id="Layer_1" data-name="Layer 1"><rect class="cls-1" x="22.15" y="231.67" width="2.89" height="0.72"/><rect class="cls-1" x="33.7" y="228.06" width="2.16" height="1.44"/><path class="cls-1" d="M5.56,234.56h5.05c1.44,0,2.16-.49,2.16-1.45a27.61,27.61,0,0,1-7.21.73Z"/><rect class="cls-1" x="92.13" y="218.68" width="2.89" height="0.72"/><path class="cls-1" d="M245.08,109q-2.7-13.69-5.77-13.7a29,29,0,0,0,2.89,7.93V104h-.73Q233,94.6,232.1,94.59l.72-1.44a5.51,5.51,0,0,0-2.17.72l-15.87-8.65q-7.22-2-20.92-8.66a.64.64,0,0,1-.72.72L191,75.84l-1.44.72q0-2.16-20.92-2.17a36.68,36.68,0,0,0-5.77.73v.72a132,132,0,0,0,16.59,1.44V78H178v.72h2.88l-.72-1.44a21.6,21.6,0,0,1,13,4.33q2.88.54,2.88,2.16l1.45-.72v1.44a51.55,51.55,0,0,1-11.55-2.16l-1.44.72q-4.51,0-29.58-7.21v.72C153,75.6,152,74.39,152,73a.64.64,0,0,0-.72.72q-5.78-4-5.77-6.49-1.26,0-1.44,1.44-7.94-2.88-7.94-5.77c-1.77-1.64-3.4-3.23-4.9-4.79Q140,45.9,140.68,37.48q0-13.11-13.8-20.95,5.22-2,15.75-3.46a36.58,36.58,0,0,1,5.78.72.64.64,0,0,1,.72-.72L155.62,16a5.56,5.56,0,0,0,.72-2.17H160q10.45,0,14.43,2.89a.64.64,0,0,1,.72-.72,1.27,1.27,0,0,1,1.44,1.44.64.64,0,0,0,.72-.72q7.4,0,24.53,6.49l1.45-.72A50.71,50.71,0,0,1,225.6,36.88q0-1.44-2.16-5.05.72,0,10.1,7.93h.72q-10.83-12.25-15.87-14.42A72.25,72.25,0,0,0,195.3,14.51a.64.64,0,0,1,.72-.72q-1.08-2.16-2.16-2.16h-3.61q-17.67-2.88-20.92-5.05a.64.64,0,0,1-.72.72h-4.33V6.58h1.44V5.86h-9.38q-2,2-11.54,2.88a.64.64,0,0,0-.72-.72,134.29,134.29,0,0,0-21.65,5.77l-.64.31A132,132,0,0,0,101,8.62a.64.64,0,0,0-.72.72q-9.56-.9-11.54-2.89H79.36v.72H80.8V7.9H76.47a.64.64,0,0,1-.72-.73q-3.24,2.17-20.92,5.05H51.22c-.72,0-1.44.73-2.16,2.17a.64.64,0,0,1,.72.72A72.44,72.44,0,0,0,26.69,25.93q-5,2.17-15.87,14.43h.72q9.39-7.94,10.1-7.93-2.16,3.6-2.16,5A50.62,50.62,0,0,1,41.84,23.05l1.45.72q17.13-6.49,24.53-6.49a.64.64,0,0,0,.72.72A1.28,1.28,0,0,1,70,16.55a.64.64,0,0,1,.72.73q4-2.9,14.43-2.89h3.61a5.53,5.53,0,0,0,.72,2.16L96,13.67a.64.64,0,0,1,.72.72,36.71,36.71,0,0,1,5.78-.72,84.86,84.86,0,0,1,14.51,3q-12.54,7.72-12.56,20.2.67,8.64,9.94,21.25c-1.64,1.73-3.43,3.5-5.4,5.32q0,2.88-7.94,5.77-.18-1.44-1.44-1.44,0,2.52-5.77,6.49a.64.64,0,0,0-.72-.72q0,2.16-2.89,3.61v-.73Q65.11,83.64,60.6,83.65l-1.44-.72a52.14,52.14,0,0,1-11.54,2.16V83.65l1.44.72q0-1.62,2.88-2.16a21.6,21.6,0,0,1,13-4.33l-.72,1.44h2.88V78.6H65.65v-.72a130.74,130.74,0,0,0,16.6-1.45v-.72A36.58,36.58,0,0,0,76.47,75q-20.91,0-20.92,2.17l-1.44-.73-2.17,1.45a.64.64,0,0,1-.72-.72Q37.53,83.84,30.3,85.81L14.43,94.47a5.51,5.51,0,0,0-2.17-.72L13,95.19q-.91,0-9.38,9.38H2.88v-.72a28.91,28.91,0,0,0,2.89-7.94q-3.06,0-5.77,13.71,0,13.89,12.26,34.63,8.49,10.83,10.1,10.82c0,1.08,1.69,3,5.05,5.77,1.81,2.89,4.21,4.33,7.22,4.33,0,1.93.48,2.89,1.44,2.89a.64.64,0,0,1,.72-.72q3.8,6.49,7.22,7.93h1.44v-1.44l2.89,1.44a.64.64,0,0,1,.72-.72v.72a.64.64,0,0,0-.72.72,5.71,5.71,0,0,1,2.88.73V176l3.61,2.17a.64.64,0,0,1,.72-.72q0,1.26,13.71,12.26,0,1.45,11.54,10.1h.72q0-.72-3.6-5.05,9,5.77,10.82,5.77v-.72l10.82,4.33q0,1.59,6.65,4.35Q81,217.23,51.73,225.18v.72h.72q25.44-3.79,36.08-7.22h.72v.73q-4.34.72-4.33,2.16a35.89,35.89,0,0,1,7.21-1.44v-.72H90v-.73q19.47-5,21.64-6.49l1.45.72q0-1.26,7.21-1.44h2.16v0a1.34,1.34,0,0,1,.21.63h2.16q7.22.18,7.22,1.44l1.44-.72q2.16,1.44,21.64,6.49V220H153v.72a35.42,35.42,0,0,1,7.21,1.45q0-1.46-4.33-2.17v-.72h.72q10.65,3.42,36.08,7.22h.72v-.72q-30.18-8.22-56.07-17.26,8.24-3.21,8.24-5l10.82-4.32v.72q1.8,0,10.82-5.77c-2.4,2.88-3.6,4.57-3.6,5.05h.72q11.53-8.67,11.54-10.1,13.71-11,13.71-12.27a.64.64,0,0,1,.72.72l3.61-2.16v.72a5.7,5.7,0,0,1,2.88-.72.64.64,0,0,0-.72-.72V174a.64.64,0,0,1,.72.73l2.89-1.45v1.45h1.44q3.44-1.44,7.22-7.94a.64.64,0,0,1,.72.72q1.44,0,1.44-2.88c3,0,5.41-1.45,7.22-4.33,3.36-2.77,5.05-4.69,5.05-5.77q1.62,0,10.1-10.83Q245.08,122.92,245.08,109ZM240,122h-.72V117H240a5.53,5.53,0,0,0,.72,2.16Zm2.17-17.31a.64.64,0,0,1-.73.72l.73,3.6v4.33h-.73a20.75,20.75,0,0,0-2.16-9.38A5.62,5.62,0,0,0,242.2,104.7Zm-4.33,5h1.44a5.53,5.53,0,0,0,.72,2.16v.72a5.53,5.53,0,0,0-2.16-.72ZM2.88,114v-4.33L3.61,106a.64.64,0,0,1-.73-.72,5.71,5.71,0,0,0,2.89-.72A20.72,20.72,0,0,0,3.61,114Zm2.89,8.66H5.05l-.72-2.89a5.53,5.53,0,0,0,.72-2.16h.72Zm1.44-10.1a5.53,5.53,0,0,0-2.16.72v-.72a5.56,5.56,0,0,0,.72-2.17H7.21ZM114.5,34q3.42-13,7.21-13a2.66,2.66,0,0,1,.57-1.58,3.06,3.06,0,0,1,1.09,2.17q3.78,0,7.21,13,0,4.3-7.84,12.88l-.31-.49Q114.5,38.33,114.5,34Zm5,15.87h-1.44a5.64,5.64,0,0,0-.73-2.16V47h.73A5.21,5.21,0,0,0,119.55,49.86Zm8.15-2.28v.72a5.59,5.59,0,0,0-.73,2.16h-1.44A5.21,5.21,0,0,0,127,47.58Zm6.49-14.43h.72v3.6l-.72,3.61a.64.64,0,0,1,.72.72h-.72l-.72-1.44V37.48a.64.64,0,0,1,.72-.73l-.72-1.44A5.53,5.53,0,0,0,134.19,33.15Zm-.72-2.89V31q-.72,0-5.05-7.93c-.72,0-1.45-.73-2.17-2.17H127A24.59,24.59,0,0,1,133.47,30.26Zm-21.86,6.62V39l-.72,1.45h-.72a.64.64,0,0,1,.72-.73l-.72-3.6V32.55h.72a5.53,5.53,0,0,0,.72,2.16l-.72,1.45A.64.64,0,0,1,111.61,36.88Zm0-6.49v-.73a24.7,24.7,0,0,1,6.5-9.38h.72c-.72,1.45-1.45,2.17-2.17,2.17Q112.34,30.39,111.61,30.39Zm-7,168.69h-2.16q-15.7-7.94-16.6-7.93v-.73h.72q17.15,8,18,7.94Zm.72.72v-.72h.72a7.79,7.79,0,0,0,3.61,1.44v.73h-.72A7.8,7.8,0,0,0,105.33,199.8Zm9.38,8.66h.51v.12l-.51,0Zm-8.15,3a16.13,16.13,0,0,0-7.21,2.16h-.72v-.72l7.21-2.16h.72Zm.72-.72V210a4.63,4.63,0,0,0,1.65-.48l.94.35-.42.85Zm23.09-2.17a1.32,1.32,0,0,1-.13.62l-.38,0v-.72h.51Zm8.15,2.77h.72l7.21,2.16v.72h-.72a16.13,16.13,0,0,0-7.21-2.16Zm-.72,0h-2.17l-.72-1.45h.72a5.61,5.61,0,0,0,2.17.72Zm1.95-12.14a7.87,7.87,0,0,0-3.61,1.44h-.72v-.72a7.84,7.84,0,0,0,3.61-1.45h.72Zm19.48-8.66q-.9,0-16.6,7.93h-2.16v-.72q.9,0,18-7.93h.72Zm64.93-48.34-1.44-.72v.72q-1.08,0-7.94,9.38-6,7.75-17.31,12.26l-1.45-.72c-.72,1.45-1.44,2.17-2.16,2.17a.64.64,0,0,0,.72.72q-4.16,5.41-31.74,19.48-18.81,9-41.09,17.37-21.36-8.07-39.5-16.78Q54.65,172,50.5,166.62a.64.64,0,0,0,.72-.73q-1.08,0-2.16-2.16l-1.44.72Q36.25,160,30.3,152.19q-6.85-9.37-7.94-9.38v-.72l-1.44.72c0-.72-.72-2.17-2.16-4.33q0-2.16-6.5-10.82a58.17,58.17,0,0,1-.72-7.94q2.18-10.81,5.77-10.82a5.7,5.7,0,0,1-.72-2.16q2.89-7.21,7.22-7.22a.64.64,0,0,0,.72.72q0-7.93,57-13.71,16.42-3.06,20.2-5l.73,1.45q-1.45,0-4.33,4.33H97.4l.72,1.44H97.4a.64.64,0,0,0-.73-.72q0,2-6.49,4.33V90.86h-.72c-1,.12-1.44.61-1.44,1.45h1.44V93q-2,0-12.26,5.77v.72h1.44q24-7.93,31.74-17.31,0-1.26,6.49-5.78a16.75,16.75,0,0,1,6-8.46,16.29,16.29,0,0,1,5.32,7.87q6.49,4.5,6.49,5.77,7.76,9.38,31.74,17.31h1.45V98.2q-10.29-5.76-12.27-5.77v-.72h1.44q0-1.26-1.44-1.44h-.72v1.44c-4.33-1.56-6.49-3-6.49-4.33a.63.63,0,0,0-.72.72H147l.73-1.44H147q-2.88-4.34-4.33-4.33l.73-1.44q3.78,2,20.2,5,57,5.78,57,13.7a.63.63,0,0,0,.72-.72q4.33,0,7.22,7.22a5.53,5.53,0,0,1-.72,2.16q3.6,0,5.77,10.82a56.61,56.61,0,0,1-.72,7.94q-6.49,8.66-6.5,10.82Q224.16,141.14,224.16,142.21Z"/><path class="cls-1" d="M178,189.11v.72c2.88-2.17,4.33-3.61,4.33-4.33h-.73Q178,188.2,178,189.11Z"/><path class="cls-1" d="M234.47,235.15h5.05v-.72a27.68,27.68,0,0,1-7.21-.72Q232.31,235.15,234.47,235.15Z"/><path class="cls-1" d="M67.09,189.7q0-.9-3.6-3.61h-.72q0,1.09,4.32,4.33Z"/><rect class="cls-1" x="220.04" y="232.27" width="2.89" height="0.72"/><rect class="cls-1" x="150.06" y="219.28" width="2.89" height="0.72"/><rect class="cls-1" x="209.22" y="228.66" width="2.16" height="1.44"/></g></svg>